<mxfile host="65bd71144e">
    <diagram id="C5RBs43oDa-KdzZeNtuy" name="Page-1">
        <mxGraphModel dx="2461" dy="421" grid="1" gridSize="10" guides="1" tooltips="1" connect="1" arrows="1" fold="1" page="1" pageScale="1" pageWidth="827" pageHeight="1169" math="0" shadow="0">
            <root>
                <mxCell id="WIyWlLk6GJQsqaUBKTNV-0"/>
                <mxCell id="WIyWlLk6GJQsqaUBKTNV-1" parent="WIyWlLk6GJQsqaUBKTNV-0"/>
                <mxCell id="M7CGMbNuYNeq0SnUNNgH-6" value="ทบทวนสัญลักษณ์" style="swimlane;fontFamily=Sarabun;fontSource=https%3A%2F%2Ffonts.googleapis.com%2Fcss%3Ffamily%3DSarabun;" parent="WIyWlLk6GJQsqaUBKTNV-1" vertex="1">
                    <mxGeometry x="-720" y="20" width="650" height="290" as="geometry"/>
                </mxCell>
                <mxCell id="M7CGMbNuYNeq0SnUNNgH-2" value="&lt;font data-font-src=&quot;https://fonts.googleapis.com/css?family=Sarabun&quot; face=&quot;Sarabun&quot;&gt;เริ่มต้น&lt;/font&gt;" style="ellipse;whiteSpace=wrap;html=1;" parent="M7CGMbNuYNeq0SnUNNgH-6" vertex="1">
                    <mxGeometry x="20" y="40" width="130" height="30" as="geometry"/>
                </mxCell>
                <mxCell id="M7CGMbNuYNeq0SnUNNgH-5" value="" style="endArrow=classic;html=1;rounded=0;" parent="M7CGMbNuYNeq0SnUNNgH-6" edge="1">
                    <mxGeometry width="50" height="50" relative="1" as="geometry">
                        <mxPoint x="84.5" y="70" as="sourcePoint"/>
                        <mxPoint x="84.5" y="120" as="targetPoint"/>
                    </mxGeometry>
                </mxCell>
                <mxCell id="M7CGMbNuYNeq0SnUNNgH-3" value="&lt;font face=&quot;Sarabun&quot;&gt;สิ้นสุด&lt;/font&gt;" style="ellipse;whiteSpace=wrap;html=1;" parent="M7CGMbNuYNeq0SnUNNgH-6" vertex="1">
                    <mxGeometry x="150" y="90" width="130" height="30" as="geometry"/>
                </mxCell>
                <mxCell id="M7CGMbNuYNeq0SnUNNgH-4" value="" style="endArrow=classic;html=1;rounded=0;" parent="M7CGMbNuYNeq0SnUNNgH-6" edge="1">
                    <mxGeometry width="50" height="50" relative="1" as="geometry">
                        <mxPoint x="214.5" y="40" as="sourcePoint"/>
                        <mxPoint x="214.5" y="90" as="targetPoint"/>
                    </mxGeometry>
                </mxCell>
                <mxCell id="mvioNwK95yMqdUQ73LqQ-0" value="กระบวนการ" style="rounded=0;whiteSpace=wrap;html=1;fontFamily=Sarabun;fontSource=https%3A%2F%2Ffonts.googleapis.com%2Fcss%3Ffamily%3DSarabun;" parent="M7CGMbNuYNeq0SnUNNgH-6" vertex="1">
                    <mxGeometry x="320" y="70" width="120" height="30" as="geometry"/>
                </mxCell>
                <mxCell id="mvioNwK95yMqdUQ73LqQ-1" value="" style="endArrow=classic;html=1;rounded=0;" parent="M7CGMbNuYNeq0SnUNNgH-6" edge="1">
                    <mxGeometry width="50" height="50" relative="1" as="geometry">
                        <mxPoint x="379" y="40" as="sourcePoint"/>
                        <mxPoint x="379.5" y="70" as="targetPoint"/>
                    </mxGeometry>
                </mxCell>
                <mxCell id="mvioNwK95yMqdUQ73LqQ-2" value="" style="endArrow=classic;html=1;rounded=0;" parent="M7CGMbNuYNeq0SnUNNgH-6" edge="1">
                    <mxGeometry width="50" height="50" relative="1" as="geometry">
                        <mxPoint x="379.75" y="100" as="sourcePoint"/>
                        <mxPoint x="380.25" y="130" as="targetPoint"/>
                    </mxGeometry>
                </mxCell>
                <mxCell id="mvioNwK95yMqdUQ73LqQ-3" value="ประโยคเงื่อนไข" style="rhombus;whiteSpace=wrap;html=1;fontFamily=Sarabun;fontSource=https%3A%2F%2Ffonts.googleapis.com%2Fcss%3Ffamily%3DSarabun;" parent="M7CGMbNuYNeq0SnUNNgH-6" vertex="1">
                    <mxGeometry x="490" y="60" width="100" height="60" as="geometry"/>
                </mxCell>
                <mxCell id="mvioNwK95yMqdUQ73LqQ-4" value="" style="endArrow=classic;html=1;rounded=0;" parent="M7CGMbNuYNeq0SnUNNgH-6" edge="1">
                    <mxGeometry width="50" height="50" relative="1" as="geometry">
                        <mxPoint x="539.71" y="30" as="sourcePoint"/>
                        <mxPoint x="540.21" y="60" as="targetPoint"/>
                    </mxGeometry>
                </mxCell>
                <mxCell id="mvioNwK95yMqdUQ73LqQ-5" value="" style="endArrow=classic;html=1;rounded=0;" parent="M7CGMbNuYNeq0SnUNNgH-6" edge="1">
                    <mxGeometry width="50" height="50" relative="1" as="geometry">
                        <mxPoint x="539.71" y="120" as="sourcePoint"/>
                        <mxPoint x="540" y="175" as="targetPoint"/>
                    </mxGeometry>
                </mxCell>
                <mxCell id="mvioNwK95yMqdUQ73LqQ-7" value="จริง" style="edgeLabel;html=1;align=center;verticalAlign=middle;resizable=0;points=[];fontFamily=Sarabun;fontSource=https%3A%2F%2Ffonts.googleapis.com%2Fcss%3Ffamily%3DSarabun;" parent="mvioNwK95yMqdUQ73LqQ-5" vertex="1" connectable="0">
                    <mxGeometry x="-0.4142" y="-1" relative="1" as="geometry">
                        <mxPoint as="offset"/>
                    </mxGeometry>
                </mxCell>
                <mxCell id="mvioNwK95yMqdUQ73LqQ-6" value="" style="endArrow=classic;html=1;rounded=0;exitX=1;exitY=0.5;exitDx=0;exitDy=0;" parent="M7CGMbNuYNeq0SnUNNgH-6" source="mvioNwK95yMqdUQ73LqQ-3" edge="1">
                    <mxGeometry width="50" height="50" relative="1" as="geometry">
                        <mxPoint x="620" y="95" as="sourcePoint"/>
                        <mxPoint x="610" y="175" as="targetPoint"/>
                        <Array as="points">
                            <mxPoint x="610" y="90"/>
                        </Array>
                    </mxGeometry>
                </mxCell>
                <mxCell id="mvioNwK95yMqdUQ73LqQ-8" value="&lt;font data-font-src=&quot;https://fonts.googleapis.com/css?family=Sarabun&quot; face=&quot;Sarabun&quot;&gt;เท็จ&lt;/font&gt;" style="edgeLabel;html=1;align=center;verticalAlign=middle;resizable=0;points=[];" parent="mvioNwK95yMqdUQ73LqQ-6" vertex="1" connectable="0">
                    <mxGeometry x="-0.0019" y="-2" relative="1" as="geometry">
                        <mxPoint as="offset"/>
                    </mxGeometry>
                </mxCell>
                <mxCell id="mvioNwK95yMqdUQ73LqQ-9" value="&lt;font data-font-src=&quot;https://fonts.googleapis.com/css?family=Sarabun&quot; face=&quot;Sarabun&quot;&gt;ฟังก์ชัน/โมดูล&lt;/font&gt;" style="shape=process;whiteSpace=wrap;html=1;backgroundOutline=1;" parent="M7CGMbNuYNeq0SnUNNgH-6" vertex="1">
                    <mxGeometry x="25" y="180" width="120" height="30" as="geometry"/>
                </mxCell>
                <mxCell id="mvioNwK95yMqdUQ73LqQ-11" value="" style="endArrow=classic;html=1;rounded=0;" parent="M7CGMbNuYNeq0SnUNNgH-6" edge="1">
                    <mxGeometry width="50" height="50" relative="1" as="geometry">
                        <mxPoint x="84.70999999999998" y="150" as="sourcePoint"/>
                        <mxPoint x="85.20999999999998" y="180" as="targetPoint"/>
                    </mxGeometry>
                </mxCell>
                <mxCell id="mvioNwK95yMqdUQ73LqQ-12" value="" style="endArrow=classic;html=1;rounded=0;" parent="M7CGMbNuYNeq0SnUNNgH-6" edge="1">
                    <mxGeometry width="50" height="50" relative="1" as="geometry">
                        <mxPoint x="84.70999999999998" y="210" as="sourcePoint"/>
                        <mxPoint x="85.20999999999998" y="240" as="targetPoint"/>
                    </mxGeometry>
                </mxCell>
                <mxCell id="mvioNwK95yMqdUQ73LqQ-13" value="" style="strokeWidth=2;html=1;shape=mxgraph.flowchart.start_2;whiteSpace=wrap;" parent="M7CGMbNuYNeq0SnUNNgH-6" vertex="1">
                    <mxGeometry x="205" y="185" width="20" height="20" as="geometry"/>
                </mxCell>
                <mxCell id="mvioNwK95yMqdUQ73LqQ-16" value="" style="endArrow=classic;html=1;rounded=0;" parent="M7CGMbNuYNeq0SnUNNgH-6" edge="1">
                    <mxGeometry width="50" height="50" relative="1" as="geometry">
                        <mxPoint x="214.70999999999998" y="155" as="sourcePoint"/>
                        <mxPoint x="215.20999999999998" y="185" as="targetPoint"/>
                    </mxGeometry>
                </mxCell>
                <mxCell id="mvioNwK95yMqdUQ73LqQ-17" value="" style="endArrow=classic;html=1;rounded=0;entryX=0;entryY=0.5;entryDx=0;entryDy=0;entryPerimeter=0;" parent="M7CGMbNuYNeq0SnUNNgH-6" target="mvioNwK95yMqdUQ73LqQ-13" edge="1">
                    <mxGeometry width="50" height="50" relative="1" as="geometry">
                        <mxPoint x="189.99999999999997" y="155" as="sourcePoint"/>
                        <mxPoint x="190.49999999999997" y="185" as="targetPoint"/>
                        <Array as="points">
                            <mxPoint x="190" y="180"/>
                        </Array>
                    </mxGeometry>
                </mxCell>
                <mxCell id="mvioNwK95yMqdUQ73LqQ-18" value="" style="endArrow=classic;html=1;rounded=0;entryX=1;entryY=0.5;entryDx=0;entryDy=0;entryPerimeter=0;" parent="M7CGMbNuYNeq0SnUNNgH-6" target="mvioNwK95yMqdUQ73LqQ-13" edge="1">
                    <mxGeometry width="50" height="50" relative="1" as="geometry">
                        <mxPoint x="239.99999999999997" y="155" as="sourcePoint"/>
                        <mxPoint x="240.49999999999997" y="185" as="targetPoint"/>
                        <Array as="points">
                            <mxPoint x="240" y="180"/>
                        </Array>
                    </mxGeometry>
                </mxCell>
                <mxCell id="mvioNwK95yMqdUQ73LqQ-19" value="" style="endArrow=classic;html=1;rounded=0;" parent="M7CGMbNuYNeq0SnUNNgH-6" edge="1">
                    <mxGeometry width="50" height="50" relative="1" as="geometry">
                        <mxPoint x="214.70999999999998" y="205" as="sourcePoint"/>
                        <mxPoint x="215.20999999999998" y="235" as="targetPoint"/>
                    </mxGeometry>
                </mxCell>
                <mxCell id="mvioNwK95yMqdUQ73LqQ-20" value="&lt;font data-font-src=&quot;https://fonts.googleapis.com/css?family=Sarabun&quot; face=&quot;Sarabun&quot;&gt;ตัวเชื่อม&lt;/font&gt;" style="text;html=1;align=center;verticalAlign=middle;resizable=0;points=[];autosize=1;strokeColor=none;fillColor=none;" parent="M7CGMbNuYNeq0SnUNNgH-6" vertex="1">
                    <mxGeometry x="220" y="190" width="60" height="30" as="geometry"/>
                </mxCell>
                <mxCell id="mvioNwK95yMqdUQ73LqQ-25" value="" style="endArrow=classic;html=1;rounded=0;" parent="M7CGMbNuYNeq0SnUNNgH-6" edge="1">
                    <mxGeometry width="50" height="50" relative="1" as="geometry">
                        <mxPoint x="353.71" y="165" as="sourcePoint"/>
                        <mxPoint x="354.21" y="195" as="targetPoint"/>
                    </mxGeometry>
                </mxCell>
                <mxCell id="mvioNwK95yMqdUQ73LqQ-21" value="" style="verticalLabelPosition=bottom;verticalAlign=top;html=1;shape=offPageConnector;rounded=0;size=0.5;" parent="M7CGMbNuYNeq0SnUNNgH-6" vertex="1">
                    <mxGeometry x="339" y="195" width="30" height="30" as="geometry"/>
                </mxCell>
                <mxCell id="mvioNwK95yMqdUQ73LqQ-26" value="" style="endArrow=classic;html=1;rounded=0;" parent="M7CGMbNuYNeq0SnUNNgH-6" edge="1">
                    <mxGeometry width="50" height="50" relative="1" as="geometry">
                        <mxPoint x="405.71" y="195" as="sourcePoint"/>
                        <mxPoint x="406.21" y="225" as="targetPoint"/>
                    </mxGeometry>
                </mxCell>
                <mxCell id="mvioNwK95yMqdUQ73LqQ-27" value="" style="verticalLabelPosition=bottom;verticalAlign=top;html=1;shape=offPageConnector;rounded=0;size=0.5;" parent="M7CGMbNuYNeq0SnUNNgH-6" vertex="1">
                    <mxGeometry x="391" y="165" width="30" height="30" as="geometry"/>
                </mxCell>
                <mxCell id="mvioNwK95yMqdUQ73LqQ-28" value="หน้าต่อไป" style="text;html=1;align=center;verticalAlign=middle;resizable=0;points=[];autosize=1;strokeColor=none;fillColor=none;fontFamily=Sarabun;fontSource=https%3A%2F%2Ffonts.googleapis.com%2Fcss%3Ffamily%3DSarabun;" parent="M7CGMbNuYNeq0SnUNNgH-6" vertex="1">
                    <mxGeometry x="345" y="220" width="70" height="30" as="geometry"/>
                </mxCell>
                <mxCell id="mvioNwK95yMqdUQ73LqQ-29" value="ก" style="text;html=1;align=center;verticalAlign=middle;resizable=0;points=[];autosize=1;strokeColor=none;fillColor=none;fontFamily=Sarabun;fontSource=https%3A%2F%2Ffonts.googleapis.com%2Fcss%3Ffamily%3DSarabun;" parent="M7CGMbNuYNeq0SnUNNgH-6" vertex="1">
                    <mxGeometry x="339" y="190" width="30" height="30" as="geometry"/>
                </mxCell>
                <mxCell id="mvioNwK95yMqdUQ73LqQ-30" value="ก" style="text;html=1;align=center;verticalAlign=middle;resizable=0;points=[];autosize=1;strokeColor=none;fillColor=none;fontFamily=Sarabun;fontSource=https%3A%2F%2Ffonts.googleapis.com%2Fcss%3Ffamily%3DSarabun;" parent="M7CGMbNuYNeq0SnUNNgH-6" vertex="1">
                    <mxGeometry x="391" y="160" width="30" height="30" as="geometry"/>
                </mxCell>
                <mxCell id="mvioNwK95yMqdUQ73LqQ-32" value="แสดงผล/รับค่า" style="shape=parallelogram;perimeter=parallelogramPerimeter;whiteSpace=wrap;html=1;fixedSize=1;fontFamily=Sarabun;fontSource=https%3A%2F%2Ffonts.googleapis.com%2Fcss%3Ffamily%3DSarabun;" parent="M7CGMbNuYNeq0SnUNNgH-6" vertex="1">
                    <mxGeometry x="450" y="210" width="120" height="30" as="geometry"/>
                </mxCell>
                <mxCell id="mvioNwK95yMqdUQ73LqQ-33" value="" style="endArrow=classic;html=1;rounded=0;" parent="M7CGMbNuYNeq0SnUNNgH-6" edge="1">
                    <mxGeometry width="50" height="50" relative="1" as="geometry">
                        <mxPoint x="509.71" y="180" as="sourcePoint"/>
                        <mxPoint x="510.21" y="210" as="targetPoint"/>
                    </mxGeometry>
                </mxCell>
                <mxCell id="mvioNwK95yMqdUQ73LqQ-34" value="" style="endArrow=classic;html=1;rounded=0;" parent="M7CGMbNuYNeq0SnUNNgH-6" edge="1">
                    <mxGeometry width="50" height="50" relative="1" as="geometry">
                        <mxPoint x="509.71" y="240" as="sourcePoint"/>
                        <mxPoint x="510.21" y="270" as="targetPoint"/>
                    </mxGeometry>
                </mxCell>
                <mxCell id="mvioNwK95yMqdUQ73LqQ-36" value="แก้ไขโจทย์ปัญหา" style="swimlane;fontFamily=Sarabun;fontSource=https%3A%2F%2Ffonts.googleapis.com%2Fcss%3Ffamily%3DSarabun;" parent="WIyWlLk6GJQsqaUBKTNV-1" vertex="1">
                    <mxGeometry x="-868" y="650" width="988" height="1710" as="geometry"/>
                </mxCell>
                <mxCell id="20" value="" style="edgeStyle=none;html=1;" parent="mvioNwK95yMqdUQ73LqQ-36" source="mvioNwK95yMqdUQ73LqQ-35" target="19" edge="1">
                    <mxGeometry relative="1" as="geometry"/>
                </mxCell>
                <mxCell id="mvioNwK95yMqdUQ73LqQ-35" value="&lt;font data-font-src=&quot;https://fonts.googleapis.com/css?family=Sarabun&quot; face=&quot;Sarabun&quot;&gt;เริ่มต้น&lt;/font&gt;" style="ellipse;whiteSpace=wrap;html=1;" parent="mvioNwK95yMqdUQ73LqQ-36" vertex="1">
                    <mxGeometry x="327" y="40" width="130" height="30" as="geometry"/>
                </mxCell>
                <mxCell id="mvioNwK95yMqdUQ73LqQ-69" value="&lt;font face=&quot;Sarabun&quot;&gt;สิ้นสุด&lt;/font&gt;" style="ellipse;whiteSpace=wrap;html=1;" parent="mvioNwK95yMqdUQ73LqQ-36" vertex="1">
                    <mxGeometry x="322" y="1630" width="130" height="30" as="geometry"/>
                </mxCell>
                <mxCell id="22" value="" style="edgeStyle=none;html=1;" parent="mvioNwK95yMqdUQ73LqQ-36" source="19" target="21" edge="1">
                    <mxGeometry relative="1" as="geometry"/>
                </mxCell>
                <mxCell id="19" value="แสดงเมนูสินค้า" style="shape=parallelogram;perimeter=parallelogramPerimeter;whiteSpace=wrap;html=1;fixedSize=1;" parent="mvioNwK95yMqdUQ73LqQ-36" vertex="1">
                    <mxGeometry x="332" y="100" width="120" height="30" as="geometry"/>
                </mxCell>
                <mxCell id="24" value="" style="edgeStyle=none;html=1;" parent="mvioNwK95yMqdUQ73LqQ-36" source="21" target="23" edge="1">
                    <mxGeometry relative="1" as="geometry"/>
                </mxCell>
                <mxCell id="21" value="เลือกสินค้า" style="rounded=0;whiteSpace=wrap;html=1;" parent="mvioNwK95yMqdUQ73LqQ-36" vertex="1">
                    <mxGeometry x="352" y="160" width="80" height="30" as="geometry"/>
                </mxCell>
                <mxCell id="27" value="" style="edgeStyle=none;html=1;fontSize=8;" parent="mvioNwK95yMqdUQ73LqQ-36" source="23" target="26" edge="1">
                    <mxGeometry relative="1" as="geometry"/>
                </mxCell>
                <mxCell id="29" value="" style="edgeStyle=none;html=1;fontSize=8;" parent="mvioNwK95yMqdUQ73LqQ-36" source="23" target="28" edge="1">
                    <mxGeometry relative="1" as="geometry"/>
                </mxCell>
                <mxCell id="23" value="&lt;font style=&quot;font-size: 11px;&quot;&gt;ขนม ,เครื่องดื่ม&lt;/font&gt;" style="rhombus;whiteSpace=wrap;html=1;rounded=0;" parent="mvioNwK95yMqdUQ73LqQ-36" vertex="1">
                    <mxGeometry x="352" y="220" width="80" height="45" as="geometry"/>
                </mxCell>
                <mxCell id="61" value="" style="edgeStyle=none;html=1;fontSize=11;" parent="mvioNwK95yMqdUQ73LqQ-36" source="26" target="60" edge="1">
                    <mxGeometry relative="1" as="geometry"/>
                </mxCell>
                <mxCell id="26" value="เครื่องดื่ม" style="shape=parallelogram;perimeter=parallelogramPerimeter;whiteSpace=wrap;html=1;fixedSize=1;rounded=0;" parent="mvioNwK95yMqdUQ73LqQ-36" vertex="1">
                    <mxGeometry x="640" y="226.25" width="120" height="32.5" as="geometry"/>
                </mxCell>
                <mxCell id="31" value="" style="edgeStyle=none;html=1;fontSize=8;" parent="mvioNwK95yMqdUQ73LqQ-36" source="28" target="30" edge="1">
                    <mxGeometry relative="1" as="geometry"/>
                </mxCell>
                <mxCell id="28" value="ขนม" style="shape=parallelogram;perimeter=parallelogramPerimeter;whiteSpace=wrap;html=1;fixedSize=1;rounded=0;" parent="mvioNwK95yMqdUQ73LqQ-36" vertex="1">
                    <mxGeometry x="50" y="231.25" width="120" height="22.5" as="geometry"/>
                </mxCell>
                <mxCell id="34" value="" style="edgeStyle=none;html=1;fontSize=8;" parent="mvioNwK95yMqdUQ73LqQ-36" source="30" target="33" edge="1">
                    <mxGeometry relative="1" as="geometry"/>
                </mxCell>
                <mxCell id="38" value="" style="edgeStyle=none;html=1;fontSize=11;" parent="mvioNwK95yMqdUQ73LqQ-36" source="30" target="37" edge="1">
                    <mxGeometry relative="1" as="geometry"/>
                </mxCell>
                <mxCell id="30" value="ขนมชั้น&lt;br&gt;10บาท" style="rhombus;whiteSpace=wrap;html=1;rounded=0;" parent="mvioNwK95yMqdUQ73LqQ-36" vertex="1">
                    <mxGeometry x="68.5" y="270" width="83" height="60" as="geometry"/>
                </mxCell>
                <mxCell id="36" value="" style="edgeStyle=none;html=1;fontSize=8;" parent="mvioNwK95yMqdUQ73LqQ-36" source="33" target="35" edge="1">
                    <mxGeometry relative="1" as="geometry"/>
                </mxCell>
                <mxCell id="204" value="" style="edgeStyle=none;html=1;" edge="1" parent="mvioNwK95yMqdUQ73LqQ-36" source="33" target="46">
                    <mxGeometry relative="1" as="geometry"/>
                </mxCell>
                <mxCell id="33" value="ฝอยทอง&lt;br&gt;10บาท" style="rhombus;whiteSpace=wrap;html=1;rounded=0;" parent="mvioNwK95yMqdUQ73LqQ-36" vertex="1">
                    <mxGeometry x="70" y="349" width="80" height="50" as="geometry"/>
                </mxCell>
                <mxCell id="207" value="" style="edgeStyle=none;html=1;" edge="1" parent="mvioNwK95yMqdUQ73LqQ-36" source="35" target="48">
                    <mxGeometry relative="1" as="geometry"/>
                </mxCell>
                <mxCell id="35" value="ลำไยอบแห้ง&lt;br&gt;10บาท" style="rhombus;whiteSpace=wrap;html=1;rounded=0;" parent="mvioNwK95yMqdUQ73LqQ-36" vertex="1">
                    <mxGeometry x="71.5" y="420" width="80" height="50" as="geometry"/>
                </mxCell>
                <mxCell id="37" value="เลือกจำนวนสินค้าลงในตะกร้า" style="whiteSpace=wrap;html=1;rounded=0;" parent="mvioNwK95yMqdUQ73LqQ-36" vertex="1">
                    <mxGeometry x="173.5" y="280" width="107" height="40" as="geometry"/>
                </mxCell>
                <mxCell id="46" value="เลือกจำนวนสินค้าลงในตะกร้า" style="whiteSpace=wrap;html=1;rounded=0;" parent="mvioNwK95yMqdUQ73LqQ-36" vertex="1">
                    <mxGeometry x="173.5" y="349" width="107" height="40" as="geometry"/>
                </mxCell>
                <mxCell id="55" value="" style="edgeStyle=none;html=1;fontSize=11;startArrow=none;" parent="mvioNwK95yMqdUQ73LqQ-36" source="51" edge="1">
                    <mxGeometry relative="1" as="geometry">
                        <mxPoint x="392" y="540" as="targetPoint"/>
                        <Array as="points">
                            <mxPoint x="392" y="440"/>
                        </Array>
                    </mxGeometry>
                </mxCell>
                <mxCell id="48" value="เลือกจำนวนสินค้าลงในตะกร้า" style="whiteSpace=wrap;html=1;rounded=0;" parent="mvioNwK95yMqdUQ73LqQ-36" vertex="1">
                    <mxGeometry x="173.5" y="420" width="107" height="40" as="geometry"/>
                </mxCell>
                <mxCell id="83" value="" style="edgeStyle=none;html=1;fontSize=11;" parent="mvioNwK95yMqdUQ73LqQ-36" source="53" target="82" edge="1">
                    <mxGeometry relative="1" as="geometry"/>
                </mxCell>
                <mxCell id="53" value="แสดงรายการที่เลือกและราคาสินค้า" style="shape=parallelogram;perimeter=parallelogramPerimeter;whiteSpace=wrap;html=1;fixedSize=1;fontSize=11;" parent="mvioNwK95yMqdUQ73LqQ-36" vertex="1">
                    <mxGeometry x="326" y="540" width="132" height="41" as="geometry"/>
                </mxCell>
                <mxCell id="56" value="" style="endArrow=classic;html=1;fontSize=11;exitX=1;exitY=0.5;exitDx=0;exitDy=0;entryX=0.5;entryY=0;entryDx=0;entryDy=0;" parent="mvioNwK95yMqdUQ73LqQ-36" source="46" target="51" edge="1">
                    <mxGeometry width="50" height="50" relative="1" as="geometry">
                        <mxPoint x="420" y="500" as="sourcePoint"/>
                        <mxPoint x="470" y="450" as="targetPoint"/>
                        <Array as="points">
                            <mxPoint x="388" y="369"/>
                        </Array>
                    </mxGeometry>
                </mxCell>
                <mxCell id="57" value="" style="endArrow=classic;html=1;fontSize=11;exitX=1;exitY=0.5;exitDx=0;exitDy=0;entryX=0.5;entryY=0;entryDx=0;entryDy=0;" parent="mvioNwK95yMqdUQ73LqQ-36" source="37" target="51" edge="1">
                    <mxGeometry width="50" height="50" relative="1" as="geometry">
                        <mxPoint x="420" y="430" as="sourcePoint"/>
                        <mxPoint x="390" y="470" as="targetPoint"/>
                        <Array as="points">
                            <mxPoint x="388" y="300"/>
                            <mxPoint x="390" y="410"/>
                            <mxPoint x="392" y="460"/>
                        </Array>
                    </mxGeometry>
                </mxCell>
                <mxCell id="58" value="" style="endArrow=classic;html=1;fontSize=11;exitX=0.5;exitY=1;exitDx=0;exitDy=0;entryX=0;entryY=0.5;entryDx=0;entryDy=0;" parent="mvioNwK95yMqdUQ73LqQ-36" source="35" target="51" edge="1">
                    <mxGeometry width="50" height="50" relative="1" as="geometry">
                        <mxPoint x="210" y="610" as="sourcePoint"/>
                        <mxPoint x="260" y="560" as="targetPoint"/>
                        <Array as="points">
                            <mxPoint x="112" y="490"/>
                        </Array>
                    </mxGeometry>
                </mxCell>
                <mxCell id="64" value="" style="edgeStyle=none;html=1;fontSize=11;" parent="mvioNwK95yMqdUQ73LqQ-36" source="60" target="63" edge="1">
                    <mxGeometry relative="1" as="geometry"/>
                </mxCell>
                <mxCell id="70" value="" style="edgeStyle=none;html=1;fontSize=11;" parent="mvioNwK95yMqdUQ73LqQ-36" source="60" target="69" edge="1">
                    <mxGeometry relative="1" as="geometry"/>
                </mxCell>
                <mxCell id="60" value="อเมริกาโน่ร้อน&lt;br&gt;30บาท" style="rhombus;whiteSpace=wrap;html=1;rounded=0;" parent="mvioNwK95yMqdUQ73LqQ-36" vertex="1">
                    <mxGeometry x="660" y="270" width="80" height="60" as="geometry"/>
                </mxCell>
                <mxCell id="66" value="" style="edgeStyle=none;html=1;fontSize=11;" parent="mvioNwK95yMqdUQ73LqQ-36" source="63" target="65" edge="1">
                    <mxGeometry relative="1" as="geometry"/>
                </mxCell>
                <mxCell id="205" value="" style="edgeStyle=none;html=1;" edge="1" parent="mvioNwK95yMqdUQ73LqQ-36" source="63" target="72">
                    <mxGeometry relative="1" as="geometry"/>
                </mxCell>
                <mxCell id="63" value="ลาเต้เย็น&lt;br&gt;40บาท" style="rhombus;whiteSpace=wrap;html=1;rounded=0;" parent="mvioNwK95yMqdUQ73LqQ-36" vertex="1">
                    <mxGeometry x="660" y="349" width="80" height="51" as="geometry"/>
                </mxCell>
                <mxCell id="206" value="" style="edgeStyle=none;html=1;" edge="1" parent="mvioNwK95yMqdUQ73LqQ-36" source="65" target="74">
                    <mxGeometry relative="1" as="geometry"/>
                </mxCell>
                <mxCell id="65" value="น้ำเปล่า&lt;br&gt;10บาท" style="rhombus;whiteSpace=wrap;html=1;rounded=0;" parent="mvioNwK95yMqdUQ73LqQ-36" vertex="1">
                    <mxGeometry x="660" y="412.75" width="80" height="54.5" as="geometry"/>
                </mxCell>
                <mxCell id="69" value="เลือกจำนวนสินค้าลงในตะกร้า" style="whiteSpace=wrap;html=1;rounded=0;" parent="mvioNwK95yMqdUQ73LqQ-36" vertex="1">
                    <mxGeometry x="510" y="280" width="120" height="40" as="geometry"/>
                </mxCell>
                <mxCell id="72" value="เลือกจำนวนสินค้าลงในตะกร้า" style="whiteSpace=wrap;html=1;rounded=0;" parent="mvioNwK95yMqdUQ73LqQ-36" vertex="1">
                    <mxGeometry x="510" y="349" width="120" height="40" as="geometry"/>
                </mxCell>
                <mxCell id="74" value="เลือกจำนวนสินค้าลงในตะกร้า" style="whiteSpace=wrap;html=1;rounded=0;" parent="mvioNwK95yMqdUQ73LqQ-36" vertex="1">
                    <mxGeometry x="510" y="420" width="120" height="40" as="geometry"/>
                </mxCell>
                <mxCell id="77" value="" style="endArrow=classic;html=1;fontSize=11;exitX=0;exitY=0.5;exitDx=0;exitDy=0;" parent="mvioNwK95yMqdUQ73LqQ-36" source="74" target="51" edge="1">
                    <mxGeometry width="50" height="50" relative="1" as="geometry">
                        <mxPoint x="420" y="460" as="sourcePoint"/>
                        <mxPoint x="390" y="540" as="targetPoint"/>
                        <Array as="points">
                            <mxPoint x="392" y="440"/>
                        </Array>
                    </mxGeometry>
                </mxCell>
                <mxCell id="79" value="" style="endArrow=classic;html=1;fontSize=11;exitX=0;exitY=0.5;exitDx=0;exitDy=0;entryX=0.5;entryY=0;entryDx=0;entryDy=0;" parent="mvioNwK95yMqdUQ73LqQ-36" source="72" target="51" edge="1">
                    <mxGeometry width="50" height="50" relative="1" as="geometry">
                        <mxPoint x="420" y="460" as="sourcePoint"/>
                        <mxPoint x="390" y="540" as="targetPoint"/>
                        <Array as="points">
                            <mxPoint x="392" y="370"/>
                        </Array>
                    </mxGeometry>
                </mxCell>
                <mxCell id="78" value="" style="endArrow=classic;html=1;fontSize=11;exitX=0;exitY=0.5;exitDx=0;exitDy=0;entryX=0.5;entryY=0;entryDx=0;entryDy=0;" parent="mvioNwK95yMqdUQ73LqQ-36" source="69" target="51" edge="1">
                    <mxGeometry width="50" height="50" relative="1" as="geometry">
                        <mxPoint x="420" y="460" as="sourcePoint"/>
                        <mxPoint x="390" y="540" as="targetPoint"/>
                        <Array as="points">
                            <mxPoint x="388" y="300"/>
                        </Array>
                    </mxGeometry>
                </mxCell>
                <mxCell id="80" value="" style="endArrow=classic;html=1;fontSize=11;exitX=0.5;exitY=1;exitDx=0;exitDy=0;entryX=1;entryY=0.5;entryDx=0;entryDy=0;" parent="mvioNwK95yMqdUQ73LqQ-36" source="65" target="51" edge="1">
                    <mxGeometry width="50" height="50" relative="1" as="geometry">
                        <mxPoint x="510" y="590" as="sourcePoint"/>
                        <mxPoint x="560" y="540" as="targetPoint"/>
                        <Array as="points">
                            <mxPoint x="700" y="490"/>
                        </Array>
                    </mxGeometry>
                </mxCell>
                <mxCell id="82" value="ต้องการสินค้าเพิ่มเติมหรือไม่" style="rhombus;whiteSpace=wrap;html=1;fontSize=11;" parent="mvioNwK95yMqdUQ73LqQ-36" vertex="1">
                    <mxGeometry x="352" y="600" width="80" height="60" as="geometry"/>
                </mxCell>
                <mxCell id="85" value="ใช่" style="text;html=1;strokeColor=none;fillColor=none;align=center;verticalAlign=middle;whiteSpace=wrap;rounded=0;fontSize=11;" parent="mvioNwK95yMqdUQ73LqQ-36" vertex="1">
                    <mxGeometry x="372" y="650" width="60" height="30" as="geometry"/>
                </mxCell>
                <mxCell id="86" value="" style="endArrow=classic;html=1;fontSize=11;exitX=1;exitY=0.5;exitDx=0;exitDy=0;entryX=1;entryY=0.5;entryDx=0;entryDy=0;" parent="mvioNwK95yMqdUQ73LqQ-36" source="82" target="21" edge="1">
                    <mxGeometry width="50" height="50" relative="1" as="geometry">
                        <mxPoint x="320" y="750" as="sourcePoint"/>
                        <mxPoint x="540" y="680" as="targetPoint"/>
                        <Array as="points">
                            <mxPoint x="788" y="630"/>
                            <mxPoint x="790" y="170"/>
                        </Array>
                    </mxGeometry>
                </mxCell>
                <mxCell id="87" value="ไม่" style="text;html=1;strokeColor=none;fillColor=none;align=center;verticalAlign=middle;whiteSpace=wrap;rounded=0;fontSize=11;" parent="mvioNwK95yMqdUQ73LqQ-36" vertex="1">
                    <mxGeometry x="560" y="610" width="60" height="30" as="geometry"/>
                </mxCell>
                <mxCell id="91" value="" style="edgeStyle=none;html=1;" edge="1" parent="mvioNwK95yMqdUQ73LqQ-36" source="89" target="90">
                    <mxGeometry relative="1" as="geometry"/>
                </mxCell>
                <mxCell id="89" value="ตกลง" style="rounded=0;whiteSpace=wrap;html=1;fontSize=11;" parent="mvioNwK95yMqdUQ73LqQ-36" vertex="1">
                    <mxGeometry x="332" y="680" width="120" height="30" as="geometry"/>
                </mxCell>
                <mxCell id="93" value="" style="edgeStyle=none;html=1;" edge="1" parent="mvioNwK95yMqdUQ73LqQ-36" source="90" target="92">
                    <mxGeometry relative="1" as="geometry"/>
                </mxCell>
                <mxCell id="90" value="รวมราคาสินค้า" style="whiteSpace=wrap;html=1;fontSize=11;rounded=0;" vertex="1" parent="mvioNwK95yMqdUQ73LqQ-36">
                    <mxGeometry x="173.5" y="680" width="120" height="30" as="geometry"/>
                </mxCell>
                <mxCell id="212" value="" style="edgeStyle=none;html=1;" edge="1" parent="mvioNwK95yMqdUQ73LqQ-36" source="92" target="211">
                    <mxGeometry relative="1" as="geometry"/>
                </mxCell>
                <mxCell id="92" value="ตรวจสอบจำนวนเงิน" style="whiteSpace=wrap;html=1;fontSize=11;rounded=0;" vertex="1" parent="mvioNwK95yMqdUQ73LqQ-36">
                    <mxGeometry x="15" y="680" width="120" height="30" as="geometry"/>
                </mxCell>
                <mxCell id="84" value="" style="endArrow=classic;html=1;fontSize=11;exitX=0.5;exitY=1;exitDx=0;exitDy=0;entryX=0.5;entryY=0;entryDx=0;entryDy=0;" parent="mvioNwK95yMqdUQ73LqQ-36" source="82" edge="1" target="89">
                    <mxGeometry width="50" height="50" relative="1" as="geometry">
                        <mxPoint x="310" y="810" as="sourcePoint"/>
                        <mxPoint x="376" y="750" as="targetPoint"/>
                    </mxGeometry>
                </mxCell>
                <mxCell id="196" value="" style="edgeStyle=none;html=1;" edge="1" parent="mvioNwK95yMqdUQ73LqQ-36" source="188" target="189">
                    <mxGeometry relative="1" as="geometry"/>
                </mxCell>
                <mxCell id="251" value="" style="edgeStyle=none;html=1;" edge="1" parent="mvioNwK95yMqdUQ73LqQ-36" source="188" target="248">
                    <mxGeometry relative="1" as="geometry"/>
                </mxCell>
                <mxCell id="188" value="มากกว่า1000" style="rhombus;whiteSpace=wrap;html=1;fontSize=11;rounded=0;" vertex="1" parent="mvioNwK95yMqdUQ73LqQ-36">
                    <mxGeometry x="37.5" y="780" width="80" height="60" as="geometry"/>
                </mxCell>
                <mxCell id="197" value="" style="edgeStyle=none;html=1;entryX=0.5;entryY=0;entryDx=0;entryDy=0;" edge="1" parent="mvioNwK95yMqdUQ73LqQ-36" source="189" target="190">
                    <mxGeometry relative="1" as="geometry"/>
                </mxCell>
                <mxCell id="189" value="มากกว่า500" style="rhombus;whiteSpace=wrap;html=1;fontSize=11;rounded=0;" vertex="1" parent="mvioNwK95yMqdUQ73LqQ-36">
                    <mxGeometry x="37.5" y="860" width="80" height="60" as="geometry"/>
                </mxCell>
                <mxCell id="198" value="" style="edgeStyle=none;html=1;entryX=0.5;entryY=0;entryDx=0;entryDy=0;" edge="1" parent="mvioNwK95yMqdUQ73LqQ-36" source="190" target="191">
                    <mxGeometry relative="1" as="geometry"/>
                </mxCell>
                <mxCell id="190" value="มากกว่า100" style="rhombus;whiteSpace=wrap;html=1;fontSize=11;rounded=0;" vertex="1" parent="mvioNwK95yMqdUQ73LqQ-36">
                    <mxGeometry x="37.5" y="940" width="80" height="60" as="geometry"/>
                </mxCell>
                <mxCell id="200" value="" style="edgeStyle=none;html=1;entryX=0.5;entryY=0;entryDx=0;entryDy=0;" edge="1" parent="mvioNwK95yMqdUQ73LqQ-36" source="191" target="192">
                    <mxGeometry relative="1" as="geometry"/>
                </mxCell>
                <mxCell id="191" value="มากกว่า50" style="rhombus;whiteSpace=wrap;html=1;fontSize=11;rounded=0;" vertex="1" parent="mvioNwK95yMqdUQ73LqQ-36">
                    <mxGeometry x="37.5" y="1020" width="80" height="60" as="geometry"/>
                </mxCell>
                <mxCell id="201" value="" style="edgeStyle=none;html=1;" edge="1" parent="mvioNwK95yMqdUQ73LqQ-36" source="192" target="193">
                    <mxGeometry relative="1" as="geometry"/>
                </mxCell>
                <mxCell id="192" value="มากกว่า20" style="rhombus;whiteSpace=wrap;html=1;fontSize=11;rounded=0;" vertex="1" parent="mvioNwK95yMqdUQ73LqQ-36">
                    <mxGeometry x="37.5" y="1110" width="80" height="60" as="geometry"/>
                </mxCell>
                <mxCell id="223" value="" style="edgeStyle=none;html=1;" edge="1" parent="mvioNwK95yMqdUQ73LqQ-36" source="194" target="222">
                    <mxGeometry relative="1" as="geometry"/>
                </mxCell>
                <mxCell id="194" value="มากกว่า1" style="rhombus;whiteSpace=wrap;html=1;fontSize=11;rounded=0;" vertex="1" parent="mvioNwK95yMqdUQ73LqQ-36">
                    <mxGeometry x="37.5" y="1350" width="80" height="60" as="geometry"/>
                </mxCell>
                <mxCell id="203" value="" style="edgeStyle=none;html=1;" edge="1" parent="mvioNwK95yMqdUQ73LqQ-36" source="195" target="194">
                    <mxGeometry relative="1" as="geometry"/>
                </mxCell>
                <mxCell id="195" value="มากกว่า5" style="rhombus;whiteSpace=wrap;html=1;fontSize=11;rounded=0;" vertex="1" parent="mvioNwK95yMqdUQ73LqQ-36">
                    <mxGeometry x="37.5" y="1270" width="80" height="60" as="geometry"/>
                </mxCell>
                <mxCell id="202" value="" style="edgeStyle=none;html=1;" edge="1" parent="mvioNwK95yMqdUQ73LqQ-36" source="193" target="195">
                    <mxGeometry relative="1" as="geometry"/>
                </mxCell>
                <mxCell id="193" value="มากกว่า10" style="rhombus;whiteSpace=wrap;html=1;fontSize=11;rounded=0;" vertex="1" parent="mvioNwK95yMqdUQ73LqQ-36">
                    <mxGeometry x="37.5" y="1190" width="80" height="60" as="geometry"/>
                </mxCell>
                <mxCell id="208" value="" style="edgeStyle=none;html=1;fontSize=11;endArrow=none;" edge="1" parent="mvioNwK95yMqdUQ73LqQ-36" source="48" target="51">
                    <mxGeometry relative="1" as="geometry">
                        <mxPoint x="-476" y="1190" as="targetPoint"/>
                        <Array as="points">
                            <mxPoint x="392" y="440"/>
                        </Array>
                        <mxPoint x="-587.5" y="1090" as="sourcePoint"/>
                    </mxGeometry>
                </mxCell>
                <mxCell id="51" value="" style="ellipse;whiteSpace=wrap;html=1;aspect=fixed;fontSize=11;" parent="mvioNwK95yMqdUQ73LqQ-36" vertex="1">
                    <mxGeometry x="382" y="480" width="20" height="20" as="geometry"/>
                </mxCell>
                <mxCell id="219" value="" style="edgeStyle=none;html=1;" edge="1" parent="mvioNwK95yMqdUQ73LqQ-36" source="211">
                    <mxGeometry relative="1" as="geometry">
                        <mxPoint x="78" y="780" as="targetPoint"/>
                    </mxGeometry>
                </mxCell>
                <mxCell id="211" value="&lt;span style=&quot;font-size: 12px;&quot;&gt;จำนวนเงินที่ต้องทอน&lt;/span&gt;" style="shape=parallelogram;perimeter=parallelogramPerimeter;whiteSpace=wrap;html=1;fixedSize=1;fontSize=11;rounded=0;" vertex="1" parent="mvioNwK95yMqdUQ73LqQ-36">
                    <mxGeometry x="15" y="730" width="125" height="30" as="geometry"/>
                </mxCell>
                <mxCell id="229" value="" style="edgeStyle=none;html=1;" edge="1" parent="mvioNwK95yMqdUQ73LqQ-36" source="222" target="228">
                    <mxGeometry relative="1" as="geometry"/>
                </mxCell>
                <mxCell id="236" value="" style="edgeStyle=none;html=1;" edge="1" parent="mvioNwK95yMqdUQ73LqQ-36" source="222" target="235">
                    <mxGeometry relative="1" as="geometry"/>
                </mxCell>
                <mxCell id="222" value="ตรวจสอบจำนวนเงินทอน" style="rhombus;whiteSpace=wrap;html=1;fontSize=11;rounded=0;" vertex="1" parent="mvioNwK95yMqdUQ73LqQ-36">
                    <mxGeometry x="37.5" y="1430" width="80" height="60" as="geometry"/>
                </mxCell>
                <mxCell id="228" value="ทอนเงินสำเร็จ" style="shape=parallelogram;perimeter=parallelogramPerimeter;whiteSpace=wrap;html=1;fixedSize=1;fontSize=11;rounded=0;" vertex="1" parent="mvioNwK95yMqdUQ73LqQ-36">
                    <mxGeometry x="15" y="1520" width="120" height="30" as="geometry"/>
                </mxCell>
                <mxCell id="231" value="" style="endArrow=classic;html=1;exitX=1;exitY=0.5;exitDx=0;exitDy=0;entryX=0.5;entryY=0;entryDx=0;entryDy=0;" edge="1" parent="mvioNwK95yMqdUQ73LqQ-36" source="228" target="mvioNwK95yMqdUQ73LqQ-69">
                    <mxGeometry width="50" height="50" relative="1" as="geometry">
                        <mxPoint x="188" y="1620" as="sourcePoint"/>
                        <mxPoint x="238" y="1570" as="targetPoint"/>
                        <Array as="points">
                            <mxPoint x="388" y="1535"/>
                        </Array>
                    </mxGeometry>
                </mxCell>
                <mxCell id="287" value="" style="edgeStyle=none;html=1;" edge="1" parent="mvioNwK95yMqdUQ73LqQ-36" source="235" target="286">
                    <mxGeometry relative="1" as="geometry"/>
                </mxCell>
                <mxCell id="235" value="ทอนไม่สำเรีจจำนวนเงินไม่พอ" style="shape=parallelogram;perimeter=parallelogramPerimeter;whiteSpace=wrap;html=1;fixedSize=1;fontSize=11;rounded=0;" vertex="1" parent="mvioNwK95yMqdUQ73LqQ-36">
                    <mxGeometry x="140" y="1445" width="120" height="30" as="geometry"/>
                </mxCell>
                <mxCell id="247" value="ไม่พอ" style="text;html=1;align=center;verticalAlign=middle;resizable=0;points=[];autosize=1;strokeColor=none;fillColor=none;" vertex="1" parent="mvioNwK95yMqdUQ73LqQ-36">
                    <mxGeometry x="71.5" y="830" width="50" height="30" as="geometry"/>
                </mxCell>
                <mxCell id="246" value="ไม่พอ" style="text;html=1;align=center;verticalAlign=middle;resizable=0;points=[];autosize=1;strokeColor=none;fillColor=none;" vertex="1" parent="mvioNwK95yMqdUQ73LqQ-36">
                    <mxGeometry x="70" y="910" width="50" height="30" as="geometry"/>
                </mxCell>
                <mxCell id="245" value="ไม่พอ" style="text;html=1;align=center;verticalAlign=middle;resizable=0;points=[];autosize=1;strokeColor=none;fillColor=none;" vertex="1" parent="mvioNwK95yMqdUQ73LqQ-36">
                    <mxGeometry x="71.5" y="990" width="50" height="30" as="geometry"/>
                </mxCell>
                <mxCell id="244" value="ไม่พอ" style="text;html=1;align=center;verticalAlign=middle;resizable=0;points=[];autosize=1;strokeColor=none;fillColor=none;" vertex="1" parent="mvioNwK95yMqdUQ73LqQ-36">
                    <mxGeometry x="71.5" y="1070" width="50" height="30" as="geometry"/>
                </mxCell>
                <mxCell id="243" value="ไม่พอ" style="text;html=1;align=center;verticalAlign=middle;resizable=0;points=[];autosize=1;strokeColor=none;fillColor=none;" vertex="1" parent="mvioNwK95yMqdUQ73LqQ-36">
                    <mxGeometry x="71.5" y="1160" width="50" height="30" as="geometry"/>
                </mxCell>
                <mxCell id="242" value="ไม่พอ" style="text;html=1;align=center;verticalAlign=middle;resizable=0;points=[];autosize=1;strokeColor=none;fillColor=none;" vertex="1" parent="mvioNwK95yMqdUQ73LqQ-36">
                    <mxGeometry x="71.5" y="1240" width="50" height="30" as="geometry"/>
                </mxCell>
                <mxCell id="241" value="ไม่พอ" style="text;html=1;align=center;verticalAlign=middle;resizable=0;points=[];autosize=1;strokeColor=none;fillColor=none;" vertex="1" parent="mvioNwK95yMqdUQ73LqQ-36">
                    <mxGeometry x="67.5" y="1320" width="50" height="30" as="geometry"/>
                </mxCell>
                <mxCell id="250" value="" style="edgeStyle=none;html=1;" edge="1" parent="mvioNwK95yMqdUQ73LqQ-36" source="248" target="249">
                    <mxGeometry relative="1" as="geometry"/>
                </mxCell>
                <mxCell id="248" value="ตรวจสอบจำนวนเงิน" style="whiteSpace=wrap;html=1;fontSize=11;rounded=0;" vertex="1" parent="mvioNwK95yMqdUQ73LqQ-36">
                    <mxGeometry x="160.5" y="793.75" width="120" height="32.5" as="geometry"/>
                </mxCell>
                <mxCell id="289" value="" style="edgeStyle=none;html=1;" edge="1" parent="mvioNwK95yMqdUQ73LqQ-36" source="249">
                    <mxGeometry relative="1" as="geometry">
                        <mxPoint x="480" y="808.7500000000002" as="targetPoint"/>
                    </mxGeometry>
                </mxCell>
                <mxCell id="249" value="เงินทอน-1000" style="shape=parallelogram;perimeter=parallelogramPerimeter;whiteSpace=wrap;html=1;fixedSize=1;fontSize=11;rounded=0;" vertex="1" parent="mvioNwK95yMqdUQ73LqQ-36">
                    <mxGeometry x="327" y="793.75" width="120" height="30" as="geometry"/>
                </mxCell>
                <mxCell id="258" value="" style="edgeStyle=none;html=1;" edge="1" parent="mvioNwK95yMqdUQ73LqQ-36" target="260">
                    <mxGeometry relative="1" as="geometry">
                        <mxPoint x="117.49999999999977" y="890.0000000000002" as="sourcePoint"/>
                    </mxGeometry>
                </mxCell>
                <mxCell id="260" value="ตรวจสอบจำนวนเงิน" style="whiteSpace=wrap;html=1;fontSize=11;rounded=0;" vertex="1" parent="mvioNwK95yMqdUQ73LqQ-36">
                    <mxGeometry x="160.5" y="873.75" width="120" height="32.5" as="geometry"/>
                </mxCell>
                <mxCell id="293" value="" style="edgeStyle=none;html=1;" edge="1" parent="mvioNwK95yMqdUQ73LqQ-36" source="261">
                    <mxGeometry relative="1" as="geometry">
                        <mxPoint x="478" y="890" as="targetPoint"/>
                    </mxGeometry>
                </mxCell>
                <mxCell id="261" value="เงินทอน-1000" style="shape=parallelogram;perimeter=parallelogramPerimeter;whiteSpace=wrap;html=1;fixedSize=1;fontSize=11;rounded=0;" vertex="1" parent="mvioNwK95yMqdUQ73LqQ-36">
                    <mxGeometry x="327" y="873.75" width="120" height="30" as="geometry"/>
                </mxCell>
                <mxCell id="259" value="" style="edgeStyle=none;html=1;" edge="1" parent="mvioNwK95yMqdUQ73LqQ-36" source="260" target="261">
                    <mxGeometry relative="1" as="geometry"/>
                </mxCell>
                <mxCell id="262" value="" style="edgeStyle=none;html=1;" edge="1" parent="mvioNwK95yMqdUQ73LqQ-36" target="264">
                    <mxGeometry relative="1" as="geometry">
                        <mxPoint x="117.49999999999977" y="970.0000000000002" as="sourcePoint"/>
                    </mxGeometry>
                </mxCell>
                <mxCell id="264" value="ตรวจสอบจำนวนเงิน" style="whiteSpace=wrap;html=1;fontSize=11;rounded=0;" vertex="1" parent="mvioNwK95yMqdUQ73LqQ-36">
                    <mxGeometry x="160.5" y="953.75" width="120" height="32.5" as="geometry"/>
                </mxCell>
                <mxCell id="265" value="เงินทอน-1000" style="shape=parallelogram;perimeter=parallelogramPerimeter;whiteSpace=wrap;html=1;fixedSize=1;fontSize=11;rounded=0;" vertex="1" parent="mvioNwK95yMqdUQ73LqQ-36">
                    <mxGeometry x="327" y="953.75" width="120" height="30" as="geometry"/>
                </mxCell>
                <mxCell id="263" value="" style="edgeStyle=none;html=1;" edge="1" parent="mvioNwK95yMqdUQ73LqQ-36" source="264" target="265">
                    <mxGeometry relative="1" as="geometry"/>
                </mxCell>
                <mxCell id="266" value="" style="edgeStyle=none;html=1;" edge="1" parent="mvioNwK95yMqdUQ73LqQ-36" target="268">
                    <mxGeometry relative="1" as="geometry">
                        <mxPoint x="117.49999999999977" y="1050.0000000000002" as="sourcePoint"/>
                    </mxGeometry>
                </mxCell>
                <mxCell id="268" value="ตรวจสอบจำนวนเงิน" style="whiteSpace=wrap;html=1;fontSize=11;rounded=0;" vertex="1" parent="mvioNwK95yMqdUQ73LqQ-36">
                    <mxGeometry x="160.5" y="1033.75" width="120" height="32.5" as="geometry"/>
                </mxCell>
                <mxCell id="269" value="เงินทอน-1000" style="shape=parallelogram;perimeter=parallelogramPerimeter;whiteSpace=wrap;html=1;fixedSize=1;fontSize=11;rounded=0;" vertex="1" parent="mvioNwK95yMqdUQ73LqQ-36">
                    <mxGeometry x="327" y="1033.75" width="120" height="30" as="geometry"/>
                </mxCell>
                <mxCell id="267" value="" style="edgeStyle=none;html=1;" edge="1" parent="mvioNwK95yMqdUQ73LqQ-36" source="268" target="269">
                    <mxGeometry relative="1" as="geometry"/>
                </mxCell>
                <mxCell id="270" value="" style="edgeStyle=none;html=1;" edge="1" parent="mvioNwK95yMqdUQ73LqQ-36" target="272">
                    <mxGeometry relative="1" as="geometry">
                        <mxPoint x="117.49999999999977" y="1140.0000000000002" as="sourcePoint"/>
                    </mxGeometry>
                </mxCell>
                <mxCell id="272" value="ตรวจสอบจำนวนเงิน" style="whiteSpace=wrap;html=1;fontSize=11;rounded=0;" vertex="1" parent="mvioNwK95yMqdUQ73LqQ-36">
                    <mxGeometry x="160.5" y="1123.75" width="120" height="32.5" as="geometry"/>
                </mxCell>
                <mxCell id="273" value="เงินทอน-1000" style="shape=parallelogram;perimeter=parallelogramPerimeter;whiteSpace=wrap;html=1;fixedSize=1;fontSize=11;rounded=0;" vertex="1" parent="mvioNwK95yMqdUQ73LqQ-36">
                    <mxGeometry x="327" y="1123.75" width="120" height="30" as="geometry"/>
                </mxCell>
                <mxCell id="271" value="" style="edgeStyle=none;html=1;" edge="1" parent="mvioNwK95yMqdUQ73LqQ-36" source="272" target="273">
                    <mxGeometry relative="1" as="geometry"/>
                </mxCell>
                <mxCell id="274" value="" style="edgeStyle=none;html=1;" edge="1" parent="mvioNwK95yMqdUQ73LqQ-36" target="276">
                    <mxGeometry relative="1" as="geometry">
                        <mxPoint x="117.49999999999977" y="1220.0000000000002" as="sourcePoint"/>
                    </mxGeometry>
                </mxCell>
                <mxCell id="276" value="ตรวจสอบจำนวนเงิน" style="whiteSpace=wrap;html=1;fontSize=11;rounded=0;" vertex="1" parent="mvioNwK95yMqdUQ73LqQ-36">
                    <mxGeometry x="160.5" y="1203.75" width="120" height="32.5" as="geometry"/>
                </mxCell>
                <mxCell id="277" value="เงินทอน-1000" style="shape=parallelogram;perimeter=parallelogramPerimeter;whiteSpace=wrap;html=1;fixedSize=1;fontSize=11;rounded=0;" vertex="1" parent="mvioNwK95yMqdUQ73LqQ-36">
                    <mxGeometry x="327" y="1203.75" width="120" height="30" as="geometry"/>
                </mxCell>
                <mxCell id="275" value="" style="edgeStyle=none;html=1;" edge="1" parent="mvioNwK95yMqdUQ73LqQ-36" source="276" target="277">
                    <mxGeometry relative="1" as="geometry"/>
                </mxCell>
                <mxCell id="278" value="" style="edgeStyle=none;html=1;" edge="1" parent="mvioNwK95yMqdUQ73LqQ-36" target="280">
                    <mxGeometry relative="1" as="geometry">
                        <mxPoint x="117.49999999999977" y="1300.0000000000002" as="sourcePoint"/>
                    </mxGeometry>
                </mxCell>
                <mxCell id="280" value="ตรวจสอบจำนวนเงิน" style="whiteSpace=wrap;html=1;fontSize=11;rounded=0;" vertex="1" parent="mvioNwK95yMqdUQ73LqQ-36">
                    <mxGeometry x="160.5" y="1283.75" width="120" height="32.5" as="geometry"/>
                </mxCell>
                <mxCell id="281" value="เงินทอน-1000" style="shape=parallelogram;perimeter=parallelogramPerimeter;whiteSpace=wrap;html=1;fixedSize=1;fontSize=11;rounded=0;" vertex="1" parent="mvioNwK95yMqdUQ73LqQ-36">
                    <mxGeometry x="327" y="1283.75" width="120" height="30" as="geometry"/>
                </mxCell>
                <mxCell id="279" value="" style="edgeStyle=none;html=1;" edge="1" parent="mvioNwK95yMqdUQ73LqQ-36" source="280" target="281">
                    <mxGeometry relative="1" as="geometry"/>
                </mxCell>
                <mxCell id="282" value="" style="edgeStyle=none;html=1;" edge="1" parent="mvioNwK95yMqdUQ73LqQ-36" target="284">
                    <mxGeometry relative="1" as="geometry">
                        <mxPoint x="117.49999999999977" y="1380.0000000000002" as="sourcePoint"/>
                    </mxGeometry>
                </mxCell>
                <mxCell id="284" value="ตรวจสอบจำนวนเงิน" style="whiteSpace=wrap;html=1;fontSize=11;rounded=0;" vertex="1" parent="mvioNwK95yMqdUQ73LqQ-36">
                    <mxGeometry x="160.5" y="1363.75" width="120" height="32.5" as="geometry"/>
                </mxCell>
                <mxCell id="285" value="เงินทอน-1000" style="shape=parallelogram;perimeter=parallelogramPerimeter;whiteSpace=wrap;html=1;fixedSize=1;fontSize=11;rounded=0;" vertex="1" parent="mvioNwK95yMqdUQ73LqQ-36">
                    <mxGeometry x="327" y="1363.75" width="120" height="30" as="geometry"/>
                </mxCell>
                <mxCell id="283" value="" style="edgeStyle=none;html=1;" edge="1" parent="mvioNwK95yMqdUQ73LqQ-36" source="284" target="285">
                    <mxGeometry relative="1" as="geometry"/>
                </mxCell>
                <mxCell id="286" value="ยกเลิก" style="whiteSpace=wrap;html=1;fontSize=11;rounded=0;" vertex="1" parent="mvioNwK95yMqdUQ73LqQ-36">
                    <mxGeometry x="278" y="1450" width="120" height="20" as="geometry"/>
                </mxCell>
                <mxCell id="301" value="พอ" style="text;html=1;align=center;verticalAlign=middle;resizable=0;points=[];autosize=1;strokeColor=none;fillColor=none;" vertex="1" parent="mvioNwK95yMqdUQ73LqQ-36">
                    <mxGeometry x="111.5" y="790" width="40" height="30" as="geometry"/>
                </mxCell>
                <mxCell id="302" value="พอ" style="text;html=1;align=center;verticalAlign=middle;resizable=0;points=[];autosize=1;strokeColor=none;fillColor=none;" vertex="1" parent="mvioNwK95yMqdUQ73LqQ-36">
                    <mxGeometry x="111.5" y="870" width="40" height="30" as="geometry"/>
                </mxCell>
                <mxCell id="303" value="พอ" style="text;html=1;align=center;verticalAlign=middle;resizable=0;points=[];autosize=1;strokeColor=none;fillColor=none;" vertex="1" parent="mvioNwK95yMqdUQ73LqQ-36">
                    <mxGeometry x="111.5" y="950" width="40" height="30" as="geometry"/>
                </mxCell>
                <mxCell id="306" value="พอ" style="text;html=1;align=center;verticalAlign=middle;resizable=0;points=[];autosize=1;strokeColor=none;fillColor=none;" vertex="1" parent="mvioNwK95yMqdUQ73LqQ-36">
                    <mxGeometry x="111.5" y="1030" width="40" height="30" as="geometry"/>
                </mxCell>
                <mxCell id="307" value="พอ" style="text;html=1;align=center;verticalAlign=middle;resizable=0;points=[];autosize=1;strokeColor=none;fillColor=none;" vertex="1" parent="mvioNwK95yMqdUQ73LqQ-36">
                    <mxGeometry x="117.5" y="1120" width="40" height="30" as="geometry"/>
                </mxCell>
                <mxCell id="310" value="พอ" style="text;html=1;align=center;verticalAlign=middle;resizable=0;points=[];autosize=1;strokeColor=none;fillColor=none;" vertex="1" parent="mvioNwK95yMqdUQ73LqQ-36">
                    <mxGeometry x="111.5" y="1200" width="40" height="30" as="geometry"/>
                </mxCell>
                <mxCell id="313" value="พอ" style="text;html=1;align=center;verticalAlign=middle;resizable=0;points=[];autosize=1;strokeColor=none;fillColor=none;" vertex="1" parent="mvioNwK95yMqdUQ73LqQ-36">
                    <mxGeometry x="111.5" y="1280" width="40" height="30" as="geometry"/>
                </mxCell>
                <mxCell id="314" value="พอ" style="text;html=1;align=center;verticalAlign=middle;resizable=0;points=[];autosize=1;strokeColor=none;fillColor=none;" vertex="1" parent="mvioNwK95yMqdUQ73LqQ-36">
                    <mxGeometry x="111.5" y="1360" width="40" height="30" as="geometry"/>
                </mxCell>
                <mxCell id="mvioNwK95yMqdUQ73LqQ-70" value="&lt;font data-font-src=&quot;https://fonts.googleapis.com/css?family=Sarabun&quot; face=&quot;Sarabun&quot;&gt;โจทย์ปัญหา&lt;/font&gt;" style="swimlane;whiteSpace=wrap;html=1;" parent="WIyWlLk6GJQsqaUBKTNV-1" vertex="1">
                    <mxGeometry x="-720" y="320" width="645" height="310" as="geometry"/>
                </mxCell>
                <mxCell id="mvioNwK95yMqdUQ73LqQ-71" value="&lt;p style=&quot;line-height: 120%;&quot;&gt;&lt;font data-font-src=&quot;https://fonts.googleapis.com/css?family=Sarabun&quot; face=&quot;Sarabun&quot; style=&quot;font-size: 14px;&quot;&gt;&lt;b&gt;&lt;u&gt;โจทย์&lt;/u&gt;&lt;/b&gt; จงเขียน Flowchart เพื่อแสดงขั้นตอนการทำงาน ของเครื่องขายน้ำอัตโนมัติ โดยเครื่องมีการทำงานดังนี้&lt;br&gt;&amp;nbsp; &amp;nbsp; - เครื่องมีสินค้าประเภท &quot;เครื่องดื่ม&quot; อยู่ 3 อย่างคือ กาแฟอเมริกาโน่ร้อน , ลาเต้เย็น , น้ำเปล่า&lt;br&gt;&amp;nbsp; &amp;nbsp; - เครื่องมีสินค้าประเภท &quot;ขนม&quot; อยู่ 3 อย่างคือ ขนมชั้น, ฝอยทอง, ลำไยอบแห้ง&lt;br&gt;&amp;nbsp; &amp;nbsp; - เครื่องสามารถทอนเงินลูกค้าได้ทั้ง เหรียญ และ ธนบัตร (โดยจะต้องเลือกทอนเงินด้วยธนบัตรใหญ่ก่อน)&lt;br&gt;&lt;/font&gt;&lt;span style=&quot;font-family: Sarabun; background-color: initial;&quot;&gt;&amp;nbsp; &amp;nbsp; &amp;nbsp; &amp;nbsp;กรณีที่มีเงินทอนไม่พอ ให้แจ้งลูกค้าก่อนซื้อสินค้าว่า &quot;เครื่องไม่มีเงิน&quot;&lt;br&gt;&amp;nbsp; &amp;nbsp; -&amp;nbsp; เครื่องสามารถแสดงจำนวนสินค้าคงเหลือ ราคาสินค้า จำนวนสินค้าที่ลูกค้าสั่ง และรวมราคาที่ลูกค้าต้องจ่าย&lt;br&gt;&lt;/span&gt;&lt;span style=&quot;font-family: Sarabun; background-color: initial;&quot;&gt;&lt;b&gt;&lt;u&gt;เหตุการณ์&lt;/u&gt;&lt;/b&gt;&lt;br&gt;&amp;nbsp; &amp;nbsp; &lt;b&gt;ลูกค้า&lt;/b&gt;สามารถเลือกสินค้ากี่ชิ้นก็ได้ จนกว่าลูกค้าจะพอใจ เมื่อพอใจแล้ว สามารถกดปุ่ม &quot;ตกลง&quot; เพื่อคำนวณ&lt;br&gt;ยอดเงินทั้งหมดที่ลูกค้าต้องชำระ และลูกค้าต้องใส่เงินไปตามจำนวน(หรือมากกว่า) เพื่อทำการชำระสินค้า&lt;br&gt;และตู้ก็จะทอนเงินให้ลูกค้า พร้อมส่งสินค้าให้ลูกค้า&lt;br&gt;&amp;nbsp; &amp;nbsp; &lt;b&gt;แอ็ดมิน&lt;/b&gt;สามารถได้รับการแจ้งเตือนทุกครั้งที่มีลูกค้ากดซื้อสินค้าหน้าตู้ โดยจะมีข้อมูลสรุปกำไรทั้งหมด จำนวน&lt;br&gt;เงินทอนคงเหลือ(ว่าเหลือแต่ละเหรียญและธนบัตรอยู่ทั้งหมดอย่างละเท่าไหร่)&lt;/span&gt;&lt;/p&gt;" style="text;html=1;align=left;verticalAlign=top;resizable=0;points=[];autosize=1;strokeColor=none;fillColor=none;fontSize=14;" parent="mvioNwK95yMqdUQ73LqQ-70" vertex="1">
                    <mxGeometry x="15" y="20" width="630" height="260" as="geometry"/>
                </mxCell>
                <mxCell id="295" value="" style="endArrow=classic;html=1;exitX=1;exitY=0.5;exitDx=0;exitDy=0;" edge="1" parent="WIyWlLk6GJQsqaUBKTNV-1" source="265">
                    <mxGeometry width="50" height="50" relative="1" as="geometry">
                        <mxPoint x="-470" y="1640" as="sourcePoint"/>
                        <mxPoint x="-390" y="1620" as="targetPoint"/>
                    </mxGeometry>
                </mxCell>
                <mxCell id="296" value="" style="endArrow=classic;html=1;exitX=1;exitY=0.5;exitDx=0;exitDy=0;" edge="1" parent="WIyWlLk6GJQsqaUBKTNV-1" source="269">
                    <mxGeometry width="50" height="50" relative="1" as="geometry">
                        <mxPoint x="-470" y="1710" as="sourcePoint"/>
                        <mxPoint x="-390" y="1700" as="targetPoint"/>
                    </mxGeometry>
                </mxCell>
                <mxCell id="297" value="" style="endArrow=classic;html=1;exitX=1;exitY=0.5;exitDx=0;exitDy=0;" edge="1" parent="WIyWlLk6GJQsqaUBKTNV-1" source="273">
                    <mxGeometry width="50" height="50" relative="1" as="geometry">
                        <mxPoint x="-470" y="1860" as="sourcePoint"/>
                        <mxPoint x="-390" y="1790" as="targetPoint"/>
                    </mxGeometry>
                </mxCell>
                <mxCell id="298" value="" style="endArrow=classic;html=1;exitX=1;exitY=0.5;exitDx=0;exitDy=0;" edge="1" parent="WIyWlLk6GJQsqaUBKTNV-1" source="277">
                    <mxGeometry width="50" height="50" relative="1" as="geometry">
                        <mxPoint x="-470" y="2010" as="sourcePoint"/>
                        <mxPoint x="-390" y="1869" as="targetPoint"/>
                    </mxGeometry>
                </mxCell>
                <mxCell id="299" value="" style="endArrow=classic;html=1;exitX=1;exitY=0.5;exitDx=0;exitDy=0;" edge="1" parent="WIyWlLk6GJQsqaUBKTNV-1" source="281">
                    <mxGeometry width="50" height="50" relative="1" as="geometry">
                        <mxPoint x="-470" y="2010" as="sourcePoint"/>
                        <mxPoint x="-390" y="1949" as="targetPoint"/>
                    </mxGeometry>
                </mxCell>
                <mxCell id="300" value="" style="endArrow=classic;html=1;exitX=1;exitY=0.5;exitDx=0;exitDy=0;" edge="1" parent="WIyWlLk6GJQsqaUBKTNV-1" source="285">
                    <mxGeometry width="50" height="50" relative="1" as="geometry">
                        <mxPoint x="-470" y="2010" as="sourcePoint"/>
                        <mxPoint x="-790" y="1420" as="targetPoint"/>
                        <Array as="points">
                            <mxPoint x="-390" y="2030"/>
                            <mxPoint x="-390" y="1420"/>
                        </Array>
                    </mxGeometry>
                </mxCell>
                <mxCell id="305" value="&lt;span style=&quot;color: rgba(0, 0, 0, 0); font-family: monospace; font-size: 0px; text-align: start;&quot;&gt;%3CmxGraphModel%3E%3Croot%3E%3CmxCell%20id%3D%220%22%2F%3E%3CmxCell%20id%3D%221%22%20parent%3D%220%22%2F%3E%3CmxCell%20id%3D%222%22%20value%3D%22%E0%B8%9E%E0%B8%AD%22%20style%3D%22text%3Bhtml%3D1%3Balign%3Dcenter%3BverticalAlign%3Dmiddle%3Bresizable%3D0%3Bpoints%3D%5B%5D%3Bautosize%3D1%3BstrokeColor%3Dnone%3BfillColor%3Dnone%3B%22%20vertex%3D%221%22%20parent%3D%221%22%3E%3CmxGeometry%20x%3D%22-756.5%22%20y%3D%221440%22%20width%3D%2240%22%20height%3D%2230%22%20as%3D%22geometry%22%2F%3E%3C%2FmxCell%3E%3C%2Froot%3E%3C%2FmxGraphModel%3E&lt;/span&gt;" style="text;html=1;align=center;verticalAlign=middle;resizable=0;points=[];autosize=1;strokeColor=none;fillColor=none;" vertex="1" parent="WIyWlLk6GJQsqaUBKTNV-1">
                    <mxGeometry x="-220" y="1545" width="20" height="30" as="geometry"/>
                </mxCell>
            </root>
        </mxGraphModel>
    </diagram>
</mxfile>